<svg width="30" height="30" viewBox="0 0 30 30" fill="none" xmlns="http://www.w3.org/2000/svg">
  <path d="M15 3.75C12.7024 3.75085 10.4601 4.45517 8.57475 5.76825C6.68935 7.08132 5.2512 8.94019 4.45366 11.0949C3.65613 13.2496 3.53746 15.5969 4.1136 17.8211C4.68975 20.0452 5.93308 22.0397 7.67643 23.5362C9.41978 25.0328 11.5795 25.9596 13.8653 26.1922C16.1511 26.4248 18.4533 25.9519 20.4624 24.8372C22.4714 23.7225 24.091 22.0193 25.1033 19.9568C26.1156 17.8943 26.4722 15.5712 26.125 13.3C25.1694 14.7701 23.6785 15.8097 21.9688 16.1982C20.259 16.5867 18.4652 16.2934 16.9682 15.3805C15.4713 14.4677 14.3891 13.0073 13.9516 11.3095C13.5141 9.61164 13.7556 7.81011 14.625 6.2875C15.1145 5.32946 15.8259 4.50231 16.7 3.875C16.15 3.8 15.575 3.75 15 3.75Z" fill="#000000"/>
</svg>
