<svg width="30" height="30" viewBox="0 0 30 30" fill="none" xmlns="http://www.w3.org/2000/svg">
  <path d="M15 8.75C13.3424 8.75 11.7527 9.40848 10.5806 10.5806C9.40848 11.7527 8.75 13.3424 8.75 15C8.75 16.6576 9.40848 18.2473 10.5806 19.4194C11.7527 20.5915 13.3424 21.25 15 21.25C16.6576 21.25 18.2473 20.5915 19.4194 19.4194C20.5915 18.2473 21.25 16.6576 21.25 15C21.25 13.3424 20.5915 11.7527 19.4194 10.5806C18.2473 9.40848 16.6576 8.75 15 8.75ZM2.5 16.25H5C5.33152 16.25 5.64946 16.1183 5.88388 15.8839C6.1183 15.6495 6.25 15.3315 6.25 15C6.25 14.6685 6.1183 14.3505 5.88388 14.1161C5.64946 13.8817 5.33152 13.75 5 13.75H2.5C2.16848 13.75 1.85054 13.8817 1.61612 14.1161C1.3817 14.3505 1.25 14.6685 1.25 15C1.25 15.3315 1.3817 15.6495 1.61612 15.8839C1.85054 16.1183 2.16848 16.25 2.5 16.25ZM25 16.25H27.5C27.8315 16.25 28.1495 16.1183 28.3839 15.8839C28.6183 15.6495 28.75 15.3315 28.75 15C28.75 14.6685 28.6183 14.3505 28.3839 14.1161C28.1495 13.8817 27.8315 13.75 27.5 13.75H25C24.6685 13.75 24.3505 13.8817 24.1161 14.1161C23.8817 14.3505 23.75 14.6685 23.75 15C23.75 15.3315 23.8817 15.6495 24.1161 15.8839C24.3505 16.1183 24.6685 16.25 25 16.25ZM13.75 2.5V5C13.75 5.33152 13.8817 5.64946 14.1161 5.88388C14.3505 6.1183 14.6685 6.25 15 6.25C15.3315 6.25 15.6495 6.1183 15.8839 5.88388C16.1183 5.64946 16.25 5.33152 16.25 5V2.5C16.25 2.16848 16.1183 1.85054 15.8839 1.61612C15.6495 1.3817 15.3315 1.25 15 1.25C14.6685 1.25 14.3505 1.3817 14.1161 1.61612C13.8817 1.85054 13.75 2.16848 13.75 2.5ZM13.75 25V27.5C13.75 27.8315 13.8817 28.1495 14.1161 28.3839C14.3505 28.6183 14.6685 28.75 15 28.75C15.3315 28.75 15.6495 28.6183 15.8839 28.3839C16.1183 28.1495 16.25 27.8315 16.25 27.5V25C16.25 24.6685 16.1183 24.3505 15.8839 24.1161C15.6495 23.8817 15.3315 23.75 15 23.75C14.6685 23.75 14.3505 23.8817 14.1161 24.1161C13.8817 24.3505 13.75 24.6685 13.75 25ZM7.4875 5.725C7.37544 5.59415 7.23754 5.48787 7.08246 5.41284C6.92738 5.33781 6.75847 5.29565 6.58632 5.289C6.41417 5.28235 6.2425 5.31136 6.0821 5.3742C5.92169 5.43705 5.77601 5.53237 5.65419 5.65419C5.53237 5.77601 5.43705 5.92169 5.3742 6.0821C5.31136 6.2425 5.28235 6.41417 5.289 6.58632C5.29565 6.75847 5.33781 6.92738 5.41284 7.08246C5.48787 7.23754 5.59415 7.37544 5.725 7.4875L7.05 8.8125C7.16206 8.94335 7.29996 9.04963 7.45504 9.12466C7.61012 9.19969 7.77903 9.24185 7.95118 9.2485C8.12333 9.25515 8.295 9.22614 8.4554 9.1633C8.61581 9.10045 8.76149 9.00513 8.88331 8.88331C9.00513 8.76149 9.10045 8.61581 9.1633 8.4554C9.22614 8.295 9.25515 8.12333 9.2485 7.95118C9.24185 7.77903 9.19969 7.61012 9.12466 7.45504C9.04963 7.29996 8.94335 7.16206 8.8125 7.05L7.4875 5.725ZM22.95 21.1875C22.8379 21.0566 22.7 20.9504 22.545 20.8753C22.3899 20.8003 22.221 20.7582 22.0488 20.7515C21.8767 20.7449 21.705 20.7739 21.5446 20.8367C21.3842 20.8995 21.2385 20.9949 21.1167 21.1167C20.9949 21.2385 20.8995 21.3842 20.8367 21.5446C20.7739 21.705 20.7449 21.8767 20.7515 22.0488C20.7582 22.221 20.8003 22.3899 20.8753 22.545C20.9504 22.7 21.0566 22.8379 21.1875 22.95L22.5125 24.275C22.6246 24.4059 22.7625 24.5121 22.9175 24.5872C23.0726 24.6622 23.2415 24.7043 23.4137 24.711C23.5858 24.7176 23.7575 24.6886 23.9179 24.6258C24.0783 24.563 24.224 24.4676 24.3458 24.3458C24.4676 24.224 24.563 24.0783 24.6258 23.9179C24.6886 23.7575 24.7176 23.5858 24.711 23.4137C24.7043 23.2415 24.6622 23.0726 24.5872 22.9175C24.5121 22.7625 24.4059 22.6246 24.275 22.5125L22.95 21.1875ZM24.275 7.4875C24.4059 7.37544 24.5121 7.23754 24.5872 7.08246C24.6622 6.92738 24.7043 6.75847 24.711 6.58632C24.7176 6.41417 24.6886 6.2425 24.6258 6.0821C24.563 5.92169 24.4676 5.77601 24.3458 5.65419C24.224 5.53237 24.0783 5.43705 23.9179 5.3742C23.7575 5.31136 23.5858 5.28235 23.4137 5.289C23.2415 5.29565 23.0726 5.33781 22.9175 5.41284C22.7625 5.48787 22.6246 5.59415 22.5125 5.725L21.1875 7.05C21.0566 7.16206 20.9504 7.29996 20.8753 7.45504C20.8003 7.61012 20.7582 7.77903 20.7515 7.95118C20.7449 8.12333 20.7739 8.295 20.8367 8.4554C20.8995 8.61581 20.9949 8.76149 21.1167 8.88331C21.2385 9.00513 21.3842 9.10045 21.5446 9.1633C21.705 9.22614 21.8767 9.25515 22.0488 9.2485C22.221 9.24185 22.3899 9.19969 22.545 9.12466C22.7 9.04963 22.8379 8.94335 22.95 8.8125L24.275 7.4875ZM8.8125 22.95C8.94335 22.8379 9.04963 22.7 9.12466 22.545C9.19969 22.3899 9.24185 22.221 9.2485 22.0488C9.25515 21.8767 9.22614 21.705 9.1633 21.5446C9.10045 21.3842 9.00513 21.2385 8.88331 21.1167C8.76149 20.9949 8.61581 20.8995 8.4554 20.8367C8.295 20.7739 8.12333 20.7449 7.95118 20.7515C7.77903 20.7582 7.61012 20.8003 7.45504 20.8753C7.29996 20.9504 7.16206 21.0566 7.05 21.1875L5.725 22.5125C5.59415 22.6246 5.48787 22.7625 5.41284 22.9175C5.33781 23.0726 5.29565 23.2415 5.289 23.4137C5.28235 23.5858 5.31136 23.7575 5.3742 23.9179C5.43705 24.0783 5.53237 24.224 5.65419 24.3458C5.77601 24.4676 5.92169 24.563 6.0821 24.6258C6.2425 24.6886 6.41417 24.7176 6.58632 24.711C6.75847 24.7043 6.92738 24.6622 7.08246 24.5872C7.23754 24.5121 7.37544 24.4059 7.4875 24.275L8.8125 22.95Z" fill="#000000"/>
</svg>
