<svg width="40" height="36" viewBox="0 0 40 36" fill="none" xmlns="http://www.w3.org/2000/svg">
<g id="logo icon">
<path id="Subtract" fill-rule="evenodd" clip-rule="evenodd" d="M3.13306 34.1139C1.40987 34.1139 -1.12849e-05 32.7181 -1.12965e-05 31.0122L-1.13702e-05 20.1682L7.88625 20.1682L7.88625 20.1562L12.6263 20.1562C13.8482 20.1251 14.8821 19.0705 14.8821 17.8299C14.8821 16.5581 13.8168 15.5036 12.5323 15.5036L6.26613 15.5036L6.26613 15.5055L-1.14019e-05 15.5055L-1.1423e-05 12.4018C-1.14346e-05 10.6959 1.40987 9.30011 3.13306 9.30011L12.5323 9.30011C14.9134 9.30011 16.9499 10.1376 18.6104 11.8125C20.3023 13.4564 21.1482 15.4725 21.1482 17.8299C21.1482 20.1562 20.3336 22.1723 18.6731 23.8162C17.0126 25.4601 15.0074 26.3286 12.6576 26.3596L6.26613 26.3596L6.26613 31.0122C6.26613 32.7181 4.85625 34.1139 3.13306 34.1139Z" fill="#02BC6B"/>
<path id="PARAGON (Stroke)" fill-rule="evenodd" clip-rule="evenodd" d="M25.0974 5.7002C28.5589 9.0287 30.3031 13.1742 30.3031 17.8865C30.3031 22.5197 28.6319 26.6613 25.2239 30.0002L20.3852 25.4931C22.5047 23.4166 23.545 20.9166 23.545 17.8865C23.545 14.8333 22.4734 12.3372 20.3031 10.2502L25.0974 5.7002Z" fill="#02897A"/>
<path id="PARAGON (Stroke)_2" fill-rule="evenodd" clip-rule="evenodd" d="M32.5055 -3.14562e-08C37.4912 4.92801 40 11.0384 40 18.0514C40 24.9549 37.5923 31.0614 32.6885 36L28.0187 31.4828C31.6715 27.8041 33.4614 23.3422 33.4614 18.0514C33.4614 12.7074 31.6112 8.24939 27.8787 4.56008L32.5055 -3.14562e-08Z" fill="#035B81"/>
<path id="Subtract_2" fill-rule="evenodd" clip-rule="evenodd" d="M-1.14441e-05 26.3857L6.26613 26.3857L6.26613 31.0127C6.26613 32.7186 4.85625 34.1144 3.13306 34.1144C1.40987 34.1144 -1.1401e-05 32.7186 -1.14126e-05 31.0127L-1.14441e-05 26.3857Z" fill="#028E37"/>
</g>
</svg>
