<svg width="146" height="50" viewBox="0 0 146 50" fill="none" xmlns="http://www.w3.org/2000/svg">
<path d="M62.1305 25.6412C62.1305 32.5815 56.7682 37.6956 50.1875 37.6956C43.6067 37.6956 38.2444 32.5815 38.2444 25.6412C38.2444 18.6521 43.6067 13.5869 50.1875 13.5869C56.7682 13.5869 62.1305 18.6521 62.1305 25.6412ZM56.9024 25.6412C56.9024 21.3043 53.7945 18.3369 50.1875 18.3369C46.5804 18.3369 43.4725 21.3043 43.4725 25.6412C43.4725 29.9347 46.5804 32.9456 50.1875 32.9456C53.7945 32.9456 56.9024 29.9293 56.9024 25.6412Z" fill="#EA4335"/>
<path d="M87.8951 25.6412C87.8951 32.5815 82.5328 37.6956 75.9521 37.6956C69.3714 37.6956 64.0091 32.5815 64.0091 25.6412C64.0091 18.6575 69.3714 13.5869 75.9521 13.5869C82.5328 13.5869 87.8951 18.6521 87.8951 25.6412ZM82.667 25.6412C82.667 21.3043 79.5592 18.3369 75.9521 18.3369C72.345 18.3369 69.2372 21.3043 69.2372 25.6412C69.2372 29.9347 72.345 32.9456 75.9521 32.9456C79.5592 32.9456 82.667 29.9293 82.667 25.6412Z" fill="#FBBC05"/>
<path d="M112.586 14.3152V35.9565C112.586 44.8586 107.401 48.4945 101.271 48.4945C95.501 48.4945 92.0282 44.5869 90.7185 41.3912L95.2702 39.4728C96.0808 41.4347 98.0668 43.7499 101.266 43.7499C105.19 43.7499 107.621 41.2988 107.621 36.6847V34.951H107.439C106.269 36.413 104.014 37.6901 101.169 37.6901C95.2166 37.6901 89.763 32.4401 89.763 25.6847C89.763 18.8804 95.2166 13.5869 101.169 13.5869C104.009 13.5869 106.263 14.8641 107.439 16.2825H107.621V14.3206H112.586V14.3152ZM107.992 25.6847C107.992 21.4402 105.195 18.3369 101.636 18.3369C98.0292 18.3369 95.0072 21.4402 95.0072 25.6847C95.0072 29.8858 98.0292 32.9456 101.636 32.9456C105.195 32.9456 107.992 29.8858 107.992 25.6847Z" fill="#4285F4"/>
<path d="M120.772 1.63042V36.9565H115.673V1.63042H120.772Z" fill="#34A853"/>
<path d="M140.643 29.6087L144.701 32.3478C143.391 34.3097 140.235 37.6902 134.782 37.6902C128.019 37.6902 122.968 32.3967 122.968 25.6358C122.968 18.4674 128.061 13.5815 134.197 13.5815C140.375 13.5815 143.397 18.5597 144.384 21.25L144.927 22.6195L129.012 29.2934C130.23 31.7119 132.125 32.9456 134.782 32.9456C137.444 32.9456 139.291 31.6195 140.643 29.6087ZM128.153 25.2717L138.791 20.7989C138.206 19.2934 136.446 18.2445 134.374 18.2445C131.717 18.2445 128.019 20.6195 128.153 25.2717Z" fill="#EA4335"/>
<path d="M18.9426 22.5054V17.3913H35.9634C36.1298 18.2826 36.2156 19.3369 36.2156 20.4782C36.2156 24.3152 35.1797 29.0597 31.841 32.4402C28.5936 35.8641 24.4444 37.6902 18.9479 37.6902C8.76012 37.6902 0.193359 29.288 0.193359 18.9728C0.193359 8.65757 8.76012 0.255394 18.9479 0.255394C24.5839 0.255394 28.5989 2.49452 31.6156 5.413L28.0514 9.0217C25.8883 6.96735 22.9576 5.36952 18.9426 5.36952C11.503 5.36952 5.68446 11.4402 5.68446 18.9728C5.68446 26.5054 11.503 32.576 18.9426 32.576C23.7681 32.576 26.5163 30.6141 28.2769 28.8315C29.7047 27.3858 30.644 25.3206 31.0144 22.5L18.9426 22.5054Z" fill="#4285F4"/>
</svg>
