<svg width="213" height="44" viewBox="0 0 213 44" fill="none" xmlns="http://www.w3.org/2000/svg">
<g clip-path="url(#clip0_1_1240)">
<path d="M75.1847 25.3426L73.9152 28.8217H73.8094C73.5978 28.0372 73.2099 26.8434 72.5751 25.4108L65.769 8.86818H59.1039V35.2341H63.5121V18.9643C63.5121 17.941 63.5121 16.7814 63.4768 15.3488C63.4415 14.6325 63.371 14.0868 63.3357 13.6775H63.4415C63.6531 14.7007 63.9 15.4511 64.0763 15.9286L72.2577 35.1658H75.3611L83.472 15.7581C83.6483 15.3147 83.8246 14.4279 84.001 13.6775H84.1068C84.001 15.6217 83.9304 17.3612 83.8952 18.4186V35.1317H88.5854V8.79996H82.1672L75.1847 25.3426ZM93.0288 16.2356H97.6132V35.1317H93.0288V16.2356ZM95.3563 8.25422C94.5804 8.25422 93.9457 8.52709 93.4167 9.00461C92.8877 9.48213 92.6056 10.0961 92.6056 10.8465C92.6056 11.5627 92.8877 12.1767 93.4167 12.6542C93.9457 13.1317 94.5804 13.3705 95.3563 13.3705C96.1321 13.3705 96.8021 13.0976 97.2958 12.6542C97.8248 12.1767 98.1069 11.5627 98.1069 10.8465C98.1069 10.1302 97.8248 9.51624 97.2958 9.00461C96.8374 8.52709 96.1674 8.25422 95.3563 8.25422ZM113.87 16.0651C113.024 15.8945 112.142 15.7922 111.296 15.7922C109.215 15.7922 107.311 16.2356 105.724 17.1224C104.137 18.0093 102.868 19.2372 102.057 20.7721C101.21 22.341 100.787 24.1488 100.787 26.2294C100.787 28.0372 101.21 29.6403 102.021 31.1069C102.832 32.5395 103.961 33.6992 105.477 34.4837C106.923 35.2682 108.616 35.6775 110.52 35.6775C112.707 35.6775 114.576 35.2341 116.057 34.4155L116.092 34.3814V30.2883L115.916 30.4248C115.246 30.9023 114.47 31.3116 113.694 31.5503C112.883 31.8232 112.142 31.9596 111.508 31.9596C109.674 31.9596 108.228 31.448 107.205 30.3224C106.147 29.231 105.618 27.7302 105.618 25.8542C105.618 23.91 106.147 22.3752 107.241 21.2496C108.334 20.124 109.78 19.5441 111.543 19.5441C113.024 19.5441 114.54 20.0217 115.916 20.9767L116.092 21.1131V16.7814L116.057 16.7472C115.457 16.5085 114.787 16.2356 113.87 16.0651ZM128.999 15.9286C127.87 15.9286 126.813 16.2697 125.896 16.986C125.12 17.6 124.591 18.4868 124.132 19.5441H124.097V16.2356H119.513V35.1317H124.097V25.479C124.097 23.8418 124.45 22.4775 125.226 21.4883C126.001 20.4651 126.989 19.9534 128.188 19.9534C128.611 19.9534 129.034 20.0558 129.563 20.124C130.057 20.2604 130.41 20.3969 130.656 20.5674L130.833 20.7038V16.2697L130.727 16.2356C130.41 16.031 129.775 15.9286 128.999 15.9286ZM141.483 15.8263C138.274 15.8263 135.699 16.7472 133.901 18.555C132.067 20.3628 131.185 22.8527 131.185 25.9907C131.185 28.924 132.102 31.3116 133.866 33.0511C135.629 34.7565 138.027 35.6434 141.024 35.6434C144.163 35.6434 146.667 34.7224 148.465 32.8806C150.299 31.0387 151.181 28.5829 151.181 25.5472C151.181 22.5457 150.334 20.1581 148.606 18.4186C146.949 16.679 144.516 15.8263 141.483 15.8263ZM145.15 30.3565C144.304 31.4139 142.964 31.9255 141.306 31.9255C139.649 31.9255 138.309 31.4139 137.357 30.2883C136.405 29.231 135.946 27.6961 135.946 25.7519C135.946 23.7395 136.44 22.2046 137.357 21.1131C138.309 20.0217 139.614 19.4759 141.271 19.4759C142.893 19.4759 144.163 19.9876 145.08 21.0449C145.997 22.1023 146.49 23.6372 146.49 25.6496C146.42 27.6961 146.032 29.2992 145.15 30.3565ZM161.407 24.0806C159.962 23.5007 159.045 23.0573 158.621 22.6821C158.269 22.341 158.093 21.8635 158.093 21.2496C158.093 20.7379 158.304 20.2263 158.833 19.8852C159.362 19.5441 159.962 19.3736 160.843 19.3736C161.619 19.3736 162.43 19.51 163.206 19.7147C163.982 19.9193 164.687 20.2263 165.251 20.6356L165.428 20.7721V16.6108L165.322 16.5767C164.793 16.3721 164.088 16.1674 163.241 15.9969C162.395 15.8604 161.619 15.7922 160.984 15.7922C158.798 15.7922 156.999 16.3038 155.589 17.4294C154.178 18.4868 153.508 19.9193 153.508 21.5907C153.508 22.4775 153.649 23.262 153.967 23.91C154.284 24.5581 154.742 25.1721 155.377 25.6837C156.012 26.1612 156.929 26.7069 158.198 27.2186C159.256 27.662 160.067 28.0031 160.561 28.2759C161.055 28.5488 161.372 28.8558 161.619 29.0945C161.795 29.3674 161.901 29.7085 161.901 30.1519C161.901 31.4139 160.914 32.0279 158.904 32.0279C158.128 32.0279 157.317 31.8914 156.365 31.5845C155.412 31.2775 154.531 30.8341 153.79 30.3224L153.614 30.186V34.5178L153.72 34.5519C154.39 34.8589 155.201 35.0635 156.188 35.3023C157.176 35.4728 158.057 35.6093 158.833 35.6093C161.196 35.6093 163.135 35.0976 164.511 33.9721C165.921 32.8806 166.662 31.4821 166.662 29.6744C166.662 28.4124 166.309 27.2868 165.533 26.4341C164.511 25.6155 163.241 24.7628 161.407 24.0806ZM178.758 15.8263C175.549 15.8263 172.974 16.7472 171.176 18.555C169.377 20.3628 168.46 22.8527 168.46 25.9907C168.46 28.924 169.377 31.3116 171.141 33.0511C172.904 34.7565 175.302 35.6434 178.299 35.6434C181.438 35.6434 183.942 34.7224 185.74 32.8806C187.574 31.0387 188.456 28.5829 188.456 25.5472C188.456 22.5457 187.609 20.1581 185.881 18.4186C184.224 16.679 181.791 15.8263 178.758 15.8263ZM182.39 30.3565C181.544 31.4139 180.204 31.9255 178.546 31.9255C176.853 31.9255 175.549 31.4139 174.597 30.2883C173.644 29.231 173.186 27.6961 173.186 25.7519C173.186 23.7395 173.68 22.2046 174.597 21.1131C175.549 20.0217 176.853 19.4759 178.511 19.4759C180.098 19.4759 181.403 19.9876 182.32 21.0449C183.236 22.1023 183.73 23.6372 183.73 25.6496C183.73 27.6961 183.272 29.2992 182.39 30.3565ZM212.965 19.8852V16.2356H208.345V10.6418L208.204 10.6759L203.831 11.9379L203.725 11.9721V16.2356H196.813V13.848C196.813 12.7565 197.096 11.9038 197.589 11.3581C198.083 10.8124 198.824 10.5395 199.74 10.5395C200.375 10.5395 201.045 10.6759 201.786 10.9829L201.962 11.0852V7.23097L201.856 7.19686C201.222 6.99221 200.375 6.85577 199.282 6.85577C197.907 6.85577 196.708 7.16275 195.614 7.67438C194.521 8.25422 193.71 9.03872 193.111 10.0961C192.511 11.1193 192.194 12.279 192.194 13.6093V16.2356H188.985V19.8511H192.194V35.1317H196.813V19.8852H203.725V29.6062C203.725 33.5969 205.665 35.6093 209.544 35.6093C210.179 35.6093 210.849 35.5069 211.484 35.4046C212.154 35.2682 212.647 35.0976 212.929 34.9612L212.965 34.9271V31.2775L212.788 31.4139C212.506 31.5845 212.259 31.7209 211.836 31.8232C211.484 31.9255 211.166 31.9596 210.919 31.9596C210.002 31.9596 209.368 31.755 208.909 31.2434C208.486 30.7659 208.274 29.9814 208.274 28.8217V19.8852H212.965Z" fill="#737373"/>
<path d="M0 0H21.6174V20.9085H0V0Z" fill="#F25022"/>
<path d="M23.8741 0H45.4915V20.9085H23.8741V0Z" fill="#7FBA00"/>
<path d="M0 23.0915H21.6174V44H0V23.0915Z" fill="#00A4EF"/>
<path d="M23.8741 23.0915H45.4915V44H23.8741V23.0915Z" fill="#FFB900"/>
</g>
<defs>
<clipPath id="clip0_1_1240">
<rect width="213" height="44" fill="white"/>
</clipPath>
</defs>
</svg>
